<svg width="24" height="24" viewBox="0 0 24 24" fill="none" xmlns="http://www.w3.org/2000/svg">
<g clip-path="url(#clip0)">
<path d="M22.7928 3.86312V7.58143H1.20728V3.86312C1.20728 3.30731 1.52019 2.82441 1.97991 2.58199C2.18176 2.47479 2.41162 2.41443 2.65597 2.41443H21.3441C21.8999 2.41443 22.3828 2.72735 22.6252 3.18706C22.7324 3.38892 22.7928 3.61877 22.7928 3.86312Z" fill="#3399FF"/>
<path d="M7.00207 2.41443V5.11865C7.00207 5.38521 6.78573 5.60155 6.51917 5.60155H4.29784C4.03128 5.60155 3.81494 5.38521 3.81494 5.11865V2.41443H7.00207Z" fill="#3399FF"/>
<path d="M19.4125 2.41443V5.11865C19.4125 5.38521 19.1961 5.60155 18.9296 5.60155H16.7082C16.4417 5.60155 16.2253 5.38521 16.2253 5.11865V2.41443H19.4125Z" fill="#3399FF"/>
<path d="M1.97991 2.58203V7.58147H1.20728V3.86316C1.20728 3.30734 1.52019 2.82445 1.97991 2.58203Z" fill="#3399FF"/>
<path d="M5.16699 10.4701H7.65149C7.78482 10.4701 7.89294 10.5782 7.89294 10.7115V13.196C7.89294 13.3294 7.78482 13.4375 7.65149 13.4375H5.16699C5.03366 13.4375 4.92554 13.3294 4.92554 13.196V10.7115C4.92554 10.5782 5.03366 10.4701 5.16699 10.4701Z" fill="#E6E6E6"/>
<path d="M5.16699 14.1617H7.65149C7.78482 14.1617 7.89294 14.2699 7.89294 14.4032V16.8882C7.89294 17.0215 7.78482 17.1296 7.65149 17.1296H5.16699C5.03366 17.1296 4.92554 17.0215 4.92554 16.8882V14.4032C4.92554 14.2699 5.03366 14.1617 5.16699 14.1617Z" fill="#E6E6E6"/>
<path d="M5.16699 17.854H7.65149C7.78482 17.854 7.89294 17.9621 7.89294 18.0955V20.58C7.89294 20.7133 7.78482 20.8214 7.65149 20.8214H5.16699C5.03366 20.8214 4.92554 20.7133 4.92554 20.58V18.0955C4.92554 17.9621 5.03366 17.854 5.16699 17.854Z" fill="#E6E6E6"/>
<path d="M8.85876 10.4701H11.3964C11.5297 10.4701 11.6378 10.5782 11.6378 10.7115V13.196C11.6378 13.3294 11.5297 13.4375 11.3964 13.4375H8.85876C8.72543 13.4375 8.61731 13.3294 8.61731 13.196V10.7115C8.61731 10.5782 8.72543 10.4701 8.85876 10.4701Z" fill="#E6E6E6"/>
<path d="M8.85876 14.1617H11.3964C11.5297 14.1617 11.6378 14.2699 11.6378 14.4032V16.8882C11.6378 17.0215 11.5297 17.1296 11.3964 17.1296H8.85876C8.72543 17.1296 8.61731 17.0215 8.61731 16.8882V14.4032C8.61731 14.2699 8.72543 14.1617 8.85876 14.1617Z" fill="#E6E6E6"/>
<path d="M8.85876 17.854H11.3964C11.5297 17.854 11.6378 17.9621 11.6378 18.0955V20.58C11.6378 20.7133 11.5297 20.8214 11.3964 20.8214H8.85876C8.72543 20.8214 8.61731 20.7133 8.61731 20.58V18.0955C8.61731 17.9621 8.72543 17.854 8.85876 17.854Z" fill="#E6E6E6"/>
<path d="M12.6036 10.4701H15.1413C15.2746 10.4701 15.3827 10.5782 15.3827 10.7115V13.196C15.3827 13.3294 15.2746 13.4375 15.1413 13.4375H12.6036C12.4703 13.4375 12.3622 13.3294 12.3622 13.196V10.7115C12.3622 10.5782 12.4703 10.4701 12.6036 10.4701Z" fill="#E6E6E6"/>
<path d="M12.6036 14.1617H15.1413C15.2746 14.1617 15.3827 14.2699 15.3827 14.4032V16.8882C15.3827 17.0215 15.2746 17.1296 15.1413 17.1296H12.6036C12.4703 17.1296 12.3622 17.0215 12.3622 16.8882V14.4032C12.3622 14.2699 12.4703 14.1617 12.6036 14.1617Z" fill="#E6E6E6"/>
<path d="M12.6036 17.854H15.1413C15.2746 17.854 15.3827 17.9621 15.3827 18.0955V20.58C15.3827 20.7133 15.2746 20.8214 15.1413 20.8214H12.6036C12.4703 20.8214 12.3622 20.7133 12.3622 20.58V18.0955C12.3622 17.9621 12.4703 17.854 12.6036 17.854Z" fill="#E6E6E6"/>
<path d="M19.0745 10.7115V13.196C19.0745 13.3294 18.9663 13.4375 18.833 13.4375H16.3485C16.2152 13.4375 16.1071 13.3294 16.1071 13.196V10.7115C16.1071 10.5782 16.2152 10.4701 16.3485 10.4701H18.833C18.9663 10.4701 19.0745 10.5782 19.0745 10.7115Z" fill="#E6E6E6"/>
<path d="M16.3485 14.1617H18.833C18.9663 14.1617 19.0745 14.2699 19.0745 14.4032V16.8882C19.0745 17.0215 18.9663 17.1296 18.833 17.1296H16.3485C16.2152 17.1296 16.1071 17.0215 16.1071 16.8882V14.4032C16.1071 14.2699 16.2152 14.1617 16.3485 14.1617Z" fill="#E6E6E6"/>
<path d="M16.3485 17.854H18.833C18.9663 17.854 19.0745 17.9621 19.0745 18.0955V20.58C19.0745 20.7133 18.9663 20.8214 18.833 20.8214H16.3485C16.2152 20.8214 16.1071 20.7133 16.1071 20.58V18.0955C16.1071 17.9621 16.2152 17.854 16.3485 17.854Z" fill="#E6E6E6"/>
<path d="M1.20728 7.24353V22.5514C1.20728 23.3515 1.85581 24.0001 2.65597 24.0001H21.3441C22.1443 24.0001 22.7928 23.3515 22.7928 22.5514V7.24353H1.20728Z" fill="#F5F5F5"/>
<path d="M7.00201 0.482897V4.34608C7.00201 4.61264 6.78568 4.82897 6.51912 4.82897H5.07042C4.80386 4.82897 4.58752 4.61264 4.58752 4.34608V0.482897C4.58752 0.216338 4.80386 0 5.07042 0H6.51912C6.78568 0 7.00201 0.216338 7.00201 0.482897Z" fill="#50758D"/>
<path d="M4.92554 10.4701H7.89294V13.4375H4.92554V10.4701Z" fill="#3399FF"/>
<path d="M16.1071 10.4701H19.0745V13.4375H16.1071V10.4701Z" fill="#3399FF"/>
<path d="M8.61731 10.4701H11.6378V13.4375H8.61731V10.4701Z" fill="#3399FF"/>
<path d="M4.92554 14.162H7.89294V17.1299H4.92554V14.162Z" fill="#3399FF"/>
<path d="M16.1071 14.162H19.0745V17.1299H16.1071V14.162Z" fill="#E6E6E6"/>
<path d="M8.61731 14.162H11.6378V17.1299H8.61731V14.162Z" fill="#3399FF"/>
<path d="M4.92554 17.8541H7.89294V20.8215H4.92554V17.8541Z" fill="#E6E6E6"/>
<path d="M16.1071 17.8541H19.0745V20.8215H16.1071V17.8541Z" fill="#E6E6E6"/>
<path d="M8.61731 17.8541H11.6378V20.8215H8.61731V17.8541Z" fill="#E6E6E6"/>
<path d="M12.3622 10.4701H15.3827V13.4375H12.3622V10.4701Z" fill="#3399FF"/>
<path d="M12.3622 14.162H15.3827V17.1299H12.3622V14.162Z" fill="#3399FF"/>
<path d="M12.3622 17.8541H15.3827V20.8215H12.3622V17.8541Z" fill="#E6E6E6"/>
<path d="M19.4125 0.482897V4.34608C19.4125 4.61264 19.1962 4.82897 18.9296 4.82897H17.4809C17.2144 4.82897 16.998 4.61264 16.998 4.34608V0.482897C16.998 0.216338 17.2144 0 17.4809 0H18.9296C19.1962 0 19.4125 0.216338 19.4125 0.482897Z" fill="#50758D"/>
<path d="M1.20728 7.24353V22.5514C1.20728 23.3515 1.85581 24.0001 2.65597 24.0001H3.19102C2.51544 23.8774 2.00406 23.2863 2.00406 22.5755V8.26824C2.05862 8.12095 2.20011 8.01617 2.36623 8.01617H22.7928V7.26768V7.24353H1.20728Z" fill="#E6E6E6"/>
<path d="M5.84306 4.82897H5.07042C4.80386 4.82897 4.58752 4.61264 4.58752 4.34608V0.482897C4.58752 0.216338 4.80386 0 5.07042 0H5.36016V4.34608C5.36016 4.61264 5.5765 4.82897 5.84306 4.82897Z" fill="#2B597F"/>
<path d="M18.2536 4.82897H17.4809C17.2144 4.82897 16.998 4.61264 16.998 4.34608V0.482897C16.998 0.216338 17.2144 0 17.4809 0H17.7707V4.34608C17.7707 4.61264 17.987 4.82897 18.2536 4.82897Z" fill="#2B597F"/>
</g>
<defs>
<clipPath id="clip0">
<rect width="24" height="24" fill="white"/>
</clipPath>
</defs>
</svg>
